<svg width="18" height="18" viewBox="0 0 18 18" fill="none" xmlns="http://www.w3.org/2000/svg">
<g id="heroicons-solid/credit-card">
<g id="Subtract">
<path d="M3.375 2.8125C2.13236 2.8125 1.125 3.81986 1.125 5.0625V5.625H16.875V5.0625C16.875 3.81986 15.8676 2.8125 14.625 2.8125H3.375Z" fill="white"/>
<path fill-rule="evenodd" clip-rule="evenodd" d="M16.875 7.3125H1.125V12.9375C1.125 14.1801 2.13236 15.1875 3.375 15.1875H14.625C15.8676 15.1875 16.875 14.1801 16.875 12.9375V7.3125ZM3.375 10.125C3.375 9.81434 3.62684 9.5625 3.9375 9.5625H8.4375C8.74816 9.5625 9 9.81434 9 10.125C9 10.4357 8.74816 10.6875 8.4375 10.6875H3.9375C3.62684 10.6875 3.375 10.4357 3.375 10.125ZM3.9375 11.8125C3.62684 11.8125 3.375 12.0643 3.375 12.375C3.375 12.6857 3.62684 12.9375 3.9375 12.9375H6.1875C6.49816 12.9375 6.75 12.6857 6.75 12.375C6.75 12.0643 6.49816 11.8125 6.1875 11.8125H3.9375Z" fill="white"/>
</g>
</g>
</svg>
