<svg width="14" height="14" viewBox="0 0 14 14" fill="none" xmlns="http://www.w3.org/2000/svg">
<g id="Group">
<path id="Vector" style="mix-blend-mode:overlay" d="M13.1908 3.73254C13.1778 3.70835 13.164 3.68416 13.1511 3.65997C11.1138 4.76407 10.1315 5.24959 7.97497 6.11006C5.58088 7.06556 2.86539 7.73078 0.0661011 7.95713C0.219025 9.07764 0.710629 10.0832 0.76938 10.1826C0.771108 10.1852 0.771972 10.1886 0.7737 10.1912C0.821219 10.2837 0.870466 10.3744 0.922305 10.4651C0.928352 10.4755 0.933536 10.4858 0.939584 10.4962C0.987103 10.5783 1.03635 10.6586 1.08646 10.7381C1.09683 10.7537 1.10547 10.7701 1.11584 10.7856C1.17459 10.8781 1.23593 10.9679 1.29986 11.0569C1.68606 10.8858 2.08436 10.7018 2.48956 10.5083C2.62607 10.4435 2.76344 10.3761 2.90082 10.3087C3.18334 10.1705 3.46931 10.0271 3.75875 9.8785C4.15791 9.67289 4.56311 9.45863 4.97264 9.23487C5.61544 8.88412 6.26688 8.51264 6.92523 8.11869C6.94251 8.10832 6.95893 8.09795 6.97621 8.08845C9.41176 6.62755 11.5544 5.10877 13.1908 3.73254Z" fill="url(#paint0_linear_5635_6427)"/>
<g id="Group_2">
<path id="Vector_2" d="M1.29907 11.0575C0.365853 9.74833 -0.123557 8.11499 0.026843 6.38797C0.364626 2.53699 3.75972 -0.310566 7.61095 0.0271959C10.0679 0.24292 12.1155 1.70368 13.1893 3.73272C11.5411 5.11828 9.37998 6.64807 6.92428 8.11869C4.95305 9.29839 3.02497 10.2957 1.29907 11.0575ZM13.7083 5.0024C13.7083 5.0024 13.638 5.04924 13.6331 5.05294C7.42356 9.4044 3.58343 13.4033 5.71492 13.8545C5.75437 13.8631 6.10448 13.9482 6.38925 13.9728C10.2405 14.3106 13.6356 11.4618 13.9734 7.61204C14.0523 6.706 13.9536 5.82585 13.7083 5.00364V5.0024Z" fill="url(#paint1_linear_5635_6427)"/>
<path id="Vector_3" d="M13.1893 3.73271C13.1769 3.70805 13.1621 3.68463 13.1498 3.65997C11.112 4.76325 10.1307 5.24893 7.97333 6.10936C5.57926 7.06471 2.86343 7.73037 0.0650024 7.95596C0.217868 9.07649 0.70976 10.0824 0.768934 10.181C0.770166 10.1835 0.771389 10.1872 0.773854 10.1896C0.8207 10.2821 0.871254 10.3733 0.921798 10.4633C0.927962 10.4732 0.932895 10.4842 0.939059 10.4941C0.985905 10.5755 1.03521 10.6568 1.08575 10.7357C1.09562 10.7517 1.10548 10.7678 1.11534 10.7838C1.17451 10.8762 1.23492 10.9662 1.29902 11.055C1.68488 10.8849 2.08308 10.7 2.48866 10.5064C2.62427 10.4411 2.76234 10.3745 2.90041 10.3067C3.18272 10.1687 3.46874 10.0244 3.75844 9.87652C4.15786 9.67066 4.56221 9.45617 4.97273 9.23305C5.61501 8.88173 6.26715 8.51068 6.92546 8.11622C6.94272 8.10635 6.95875 8.09526 6.97601 8.0854C9.41076 6.62464 11.5533 5.10594 13.1905 3.73024L13.1893 3.73271Z" fill="#00732A"/>
</g>
</g>
<defs>
<linearGradient id="paint0_linear_5635_6427" x1="6.8743" y1="4.59034" x2="5.19303" y2="13.0364" gradientUnits="userSpaceOnUse">
<stop stop-color="#1A1A1A" stop-opacity="0.1"/>
<stop offset="0.88" stop-opacity="0.7"/>
</linearGradient>
<linearGradient id="paint1_linear_5635_6427" x1="3.22041" y1="13.5397" x2="10.9906" y2="0.0802515" gradientUnits="userSpaceOnUse">
<stop stop-color="#00732A"/>
<stop offset="0.16" stop-color="#1F8330"/>
<stop offset="0.51" stop-color="#6EAD3F"/>
<stop offset="0.88" stop-color="#CADE51"/>
</linearGradient>
</defs>
</svg>
