<svg viewBox="0 0 25 22" fill="none" xmlns="http://www.w3.org/2000/svg">
    <path
        d="M20.7925 9.07729C21.1584 9.07729 21.5242 9.36183 21.5242 10.0122H20.0202C20.0202 9.36183 20.4267 9.07729 20.7925 9.07729ZM16.0365 9.19924C16.5243 9.19924 16.8902 9.76833 16.8902 10.5407C16.8902 11.313 16.565 11.8821 16.0365 11.8821C15.6707 11.8821 15.4674 11.7602 15.3455 11.6382V9.48378C15.4674 9.32119 15.6707 9.19924 16.0365 9.19924ZM22.2559 1.39451C23.3128 1.39451 24.2071 2.2888 24.2071 3.34569V17.6544C24.2071 18.7519 23.3128 19.6055 22.2559 19.6055H2.74409C1.64656 19.6055 0.792913 18.7519 0.792913 17.6544V3.34569C0.792913 2.2888 1.64656 1.39451 2.74409 1.39451H22.2559ZM5.75217 11.5569C5.75217 9.80898 3.51644 10.1342 3.51644 9.48378C3.51644 9.23989 3.71969 9.15859 4.04488 9.15859C4.45138 9.15859 5.02047 9.28054 5.46762 9.52443V8.183C4.97982 7.97975 4.49203 7.89845 4.04488 7.89845C2.86604 7.89845 2.0937 8.50819 2.0937 9.56508C2.0937 11.1504 4.28878 10.8659 4.28878 11.5569C4.28878 11.8415 4.04488 11.9228 3.71969 11.9228C3.23189 11.9228 2.62215 11.7195 2.13435 11.4756V12.8577C2.6628 13.0609 3.23189 13.1829 3.71969 13.1829C4.89852 13.1829 5.75217 12.5732 5.75217 11.5569ZM8.55699 9.23989V8.0204H7.45945V6.76026L6.03671 7.04481V11.6789C6.03671 12.5325 6.68711 13.1829 7.54075 13.1829C7.98789 13.1829 8.35374 13.1016 8.55699 12.9796V11.8008C8.35374 11.8821 7.45945 12.126 7.45945 11.2724V9.23989H8.55699ZM11.5651 9.32119V8.0204H11.5244C11.3618 7.9391 10.6708 7.81715 10.3456 8.42689L10.2643 8.0204H9.00413V13.0609H10.4269V9.64638C10.7927 9.19924 11.3618 9.28054 11.5651 9.32119ZM13.3536 13.0609V8.0204H11.8903V13.0609H13.3536ZM13.3536 7.24806V6.06922L11.8903 6.39441V7.57325L13.3536 7.24806ZM16.3617 13.1829C17.378 13.1829 18.3129 12.3293 18.3129 10.5C18.3129 8.83339 17.378 7.89845 16.3617 7.89845C15.7926 7.89845 15.4268 8.183 15.2235 8.34559L15.1422 8.0204H13.8821V14.7276L15.3455 14.443V12.8171C15.5487 12.939 15.8333 13.1829 16.3617 13.1829ZM22.8657 11.0691C22.8657 10.9878 22.9063 10.7033 22.9063 10.5407C22.9063 9.07729 22.1746 7.89845 20.7925 7.89845C19.4104 7.89845 18.5974 9.07729 18.5974 10.5407C18.5974 12.2886 19.573 13.1829 20.9958 13.1829C21.6868 13.1829 22.1746 13.0203 22.5811 12.7764V11.6382C22.1746 11.8415 21.7275 11.9634 21.1584 11.9634C20.5893 11.9634 20.1015 11.7602 20.0608 11.0691H22.8657Z"/>
</svg>
