<svg width="43" height="43" viewBox="0 0 43 43" fill="none" xmlns="http://www.w3.org/2000/svg">
<rect width="100%" height="100%" fill="#6772E5" />
<g transform="scale(0.5) translate(21.5, 21.5)" clip-path="url(#clip0_400_1541)">
<path fill-rule="evenodd" clip-rule="evenodd" d="M89.806 11.8254L89.418 9.98298H84.0269V31.83H90.2557V17.0032C91.7294 15.076 94.2155 15.4511 95.0069 15.6965V9.98555C94.177 9.68747 91.2643 9.14014 89.806 11.8228V11.8254ZM77.3048 4.57134L71.2199 5.86386L71.1942 25.8581C71.1942 29.5456 73.9668 32.2732 77.6671 32.2732C79.7035 32.2732 81.208 31.8852 82.0419 31.4471V26.3721C81.2427 26.6907 77.3099 27.8342 77.3099 24.1622V15.297H82.0419V9.98169H77.3099L77.3048 4.57134ZM60.43 16.3222C60.43 15.3484 61.2395 14.9732 62.5474 14.9732C64.7125 15.0201 66.837 15.5699 68.753 16.5792V10.7076C66.7774 9.9308 64.6702 9.54338 62.5474 9.5667C57.5058 9.5667 54.1229 12.2083 54.1229 16.6178C54.1229 23.5172 63.5984 22.3969 63.5984 25.3712C63.5984 26.5352 62.5962 26.895 61.2048 26.895C59.1414 26.895 56.4766 26.0419 54.3863 24.9035V30.8522C56.5382 31.7882 58.8581 32.2765 61.2048 32.2874C66.3864 32.2874 69.9582 29.728 69.9582 25.2401C69.9582 17.7934 60.4287 19.1244 60.4287 16.3197L60.43 16.3222ZM18.7763 13.168C18.7763 11.4078 20.241 10.7269 22.6077 10.7269C26.5245 10.8115 30.368 11.806 33.8344 13.6318V3.00643C30.2601 1.60176 26.4478 0.901533 22.6077 0.944307C13.4855 0.944307 7.36719 5.72253 7.36719 13.7012C7.36719 26.1845 24.5092 24.157 24.5092 29.5379C24.5092 31.6424 22.7104 32.2951 20.1794 32.2951C16.447 32.2951 11.6263 30.7507 7.84514 28.695V39.4592C11.7381 41.1531 15.9351 42.037 20.1806 42.0571C29.5559 42.0571 36.0185 37.4253 36.0185 29.3079C36.0185 15.8353 18.7763 18.2418 18.7763 13.1706V13.168Z" fill="white"/>
</g>
<defs>
<clipPath id="clip0_400_1541">
<rect width="41.1141" height="41.1141" fill="white" transform="translate(0.943115 0.942963)"/>
</clipPath>
</defs>
</svg>
