<svg viewBox="0 0 17 16" fill="none" stroke="currentColor" xmlns="http://www.w3.org/2000/svg">
<g clip-path="url(#clip0_2999_6759)">
<path d="M12.0758 11.32H8.08251C7.34918 11.32 6.78251 11.9467 6.42918 12.5867C6.14948 13.1115 5.70237 13.5278 5.15893 13.7693C4.61548 14.0109 4.00689 14.0638 3.42989 13.9197C2.8529 13.7757 2.34061 13.4429 1.97448 12.9743C1.60834 12.5056 1.40937 11.928 1.40918 11.3333C1.41585 10.8667 1.54251 10.4 1.78918 10" stroke-width="1.5" stroke-linecap="round" stroke-linejoin="round"/>
<path d="M4.07593 11.3332L6.16259 7.47988C6.51593 6.83321 6.22926 6.02654 5.82926 5.41321C5.64047 5.11128 5.51406 4.77459 5.4575 4.42302C5.40094 4.07144 5.41536 3.7121 5.49992 3.36619C5.58448 3.02028 5.73747 2.6948 5.94985 2.40898C6.16223 2.12315 6.42971 1.88275 6.73651 1.70197C7.0433 1.52119 7.3832 1.40368 7.73614 1.35639C8.08908 1.30909 8.44792 1.33297 8.79149 1.4266C9.13505 1.52023 9.45639 1.68173 9.73653 1.90156C10.0167 2.12139 10.2499 2.3951 10.4226 2.70654" stroke-width="1.5" stroke-linecap="round" stroke-linejoin="round"/>
<path d="M8.07593 4L10.1626 7.82C10.5159 8.46667 11.3426 8.66667 12.0759 8.66667C12.7832 8.66667 13.4614 8.94762 13.9615 9.44772C14.4616 9.94781 14.7426 10.6261 14.7426 11.3333C14.7426 12.0406 14.4616 12.7189 13.9615 13.219C13.4614 13.719 12.7832 14 12.0759 14" stroke-width="1.5" stroke-linecap="round" stroke-linejoin="round"/>
</g>
<defs>
<clipPath id="clip0_2999_6759">
<rect width="16" height="16" fill="white" transform="translate(0.0759277)"/>
</clipPath>
</defs>
</svg>
